<svg xmlns="http://www.w3.org/2000/svg" viewBox="0 0 512 512" width="100%" height="100%">
  <defs>
    <filter id="drop-shadow" x="-20%" y="-20%" width="140%" height="140%">
      <feDropShadow dx="0" dy="8" stdDeviation="10" flood-color="#120c1f" flood-opacity="0.5"/>
    </filter>

    <filter id="glow-purple" x="-20%" y="-20%" width="140%" height="140%">
      <feGaussianBlur stdDeviation="6" result="blur"/>
      <feComposite in="SourceGraphic" in2="blur" operator="over"/>
    </filter>

    <linearGradient id="blade-light" x1="0%" y1="0%" x2="100%" y2="0%">
      <stop offset="0%" stop-color="#ffffff"/>
      <stop offset="65%" stop-color="#d1dbe5"/>
      <stop offset="100%" stop-color="#99aec4"/>
    </linearGradient>

    <linearGradient id="blade-dark" x1="0%" y1="0%" x2="100%" y2="0%">
      <stop offset="0%" stop-color="#8ba0b8"/>
      <stop offset="100%" stop-color="#4e6278"/>
    </linearGradient>

    <linearGradient id="gold-grad" x1="0%" y1="0%" x2="100%" y2="100%">
      <stop offset="0%" stop-color="#fff176"/>
      <stop offset="50%" stop-color="#f5b324"/>
      <stop offset="100%" stop-color="#945f21"/>
    </linearGradient>

    <linearGradient id="brass-grad" x1="0%" y1="0%" x2="100%" y2="100%">
      <stop offset="0%" stop-color="#ffe875"/>
      <stop offset="100%" stop-color="#b8780e"/>
    </linearGradient>

    <linearGradient id="wood-grad" x1="0%" y1="0%" x2="100%" y2="0%">
      <stop offset="0%" stop-color="#a06037"/>
      <stop offset="50%" stop-color="#734020"/>
      <stop offset="100%" stop-color="#42220f"/>
    </linearGradient>

    <linearGradient id="leather-grad" x1="0%" y1="0%" x2="100%" y2="0%">
      <stop offset="0%" stop-color="#5c3422"/>
      <stop offset="50%" stop-color="#3d2013"/>
      <stop offset="100%" stop-color="#241108"/>
    </linearGradient>

    <linearGradient id="leather-light" x1="0%" y1="0%" x2="100%" y2="100%">
      <stop offset="0%" stop-color="#8a5238"/>
      <stop offset="100%" stop-color="#5c3422"/>
    </linearGradient>

    <linearGradient id="leather-dark" x1="0%" y1="0%" x2="100%" y2="100%">
      <stop offset="0%" stop-color="#3b2014"/>
      <stop offset="100%" stop-color="#1c0d06"/>
    </linearGradient>

    <linearGradient id="cloth-grad" x1="0%" y1="0%" x2="100%" y2="100%">
      <stop offset="0%" stop-color="#d9b88f"/>
      <stop offset="50%" stop-color="#ab875a"/>
      <stop offset="100%" stop-color="#6e502c"/>
    </linearGradient>

    <linearGradient id="fur-grad" x1="0%" y1="0%" x2="100%" y2="100%">
      <stop offset="0%" stop-color="#e0d7cd"/>
      <stop offset="60%" stop-color="#998777"/>
      <stop offset="100%" stop-color="#4d4136"/>
    </linearGradient>

    <linearGradient id="poison-grad" x1="0%" y1="0%" x2="100%" y2="100%">
      <stop offset="0%" stop-color="#76ff03"/>
      <stop offset="100%" stop-color="#33691e"/>
    </linearGradient>

    <linearGradient id="ribbon-grad" x1="0%" y1="0%" x2="100%" y2="100%">
      <stop offset="0%" stop-color="#ff4d4d"/>
      <stop offset="70%" stop-color="#cc1133"/>
      <stop offset="100%" stop-color="#7a001e"/>
    </linearGradient>

    <!-- Liquid Gradients -->
    <radialGradient id="liquid-red" cx="40%" cy="40%" r="60%">
      <stop offset="0%" stop-color="#ff6b8b"/>
      <stop offset="50%" stop-color="#ff1a40"/>
      <stop offset="90%" stop-color="#b30024"/>
      <stop offset="100%" stop-color="#660012"/>
    </radialGradient>

    <radialGradient id="liquid-ruby" cx="45%" cy="40%" r="55%">
      <stop offset="0%" stop-color="#ffffff"/>
      <stop offset="25%" stop-color="#ff758c"/>
      <stop offset="60%" stop-color="#ff1244"/>
      <stop offset="90%" stop-color="#990022"/>
      <stop offset="100%" stop-color="#4a000f"/>
    </radialGradient>

    <radialGradient id="fire-liquid" cx="50%" cy="60%" r="55%">
      <stop offset="0%" stop-color="#fff59d"/>
      <stop offset="35%" stop-color="#ffb74d"/>
      <stop offset="70%" stop-color="#ff5722"/>
      <stop offset="100%" stop-color="#b71c1c"/>
    </radialGradient>

    <linearGradient id="glass-shine" x1="0%" y1="0%" x2="100%" y2="100%">
      <stop offset="0%" stop-color="#ffffff" stop-opacity="0.8"/>
      <stop offset="30%" stop-color="#ffffff" stop-opacity="0.3"/>
      <stop offset="100%" stop-color="#ffffff" stop-opacity="0.0"/>
    </linearGradient>

    <linearGradient id="cork-grad" x1="0%" y1="0%" x2="100%" y2="100%">
      <stop offset="0%" stop-color="#c9915c"/>
      <stop offset="100%" stop-color="#7a4e28"/>
    </linearGradient>

    <linearGradient id="parchment" x1="0%" y1="0%" x2="100%" y2="100%">
      <stop offset="0%" stop-color="#fff9d9"/>
      <stop offset="60%" stop-color="#ebd89b"/>
      <stop offset="100%" stop-color="#c4af6e"/>
    </linearGradient>

    <linearGradient id="parchment-dark" x1="0%" y1="0%" x2="100%" y2="100%">
      <stop offset="0%" stop-color="#b8a15c"/>
      <stop offset="100%" stop-color="#786328"/>
    </linearGradient>

    <linearGradient id="steel-rim" x1="0%" y1="0%" x2="100%" y2="100%">
      <stop offset="0%" stop-color="#eaeff5"/>
      <stop offset="50%" stop-color="#b0c2d4"/>
      <stop offset="100%" stop-color="#5a6e85"/>
    </linearGradient>

    <linearGradient id="shield-field-left" x1="0%" y1="0%" x2="100%" y2="100%">
      <stop offset="0%" stop-color="#2a52be"/>
      <stop offset="100%" stop-color="#142866"/>
    </linearGradient>

    <linearGradient id="shield-field-right" x1="0%" y1="0%" x2="100%" y2="100%">
      <stop offset="0%" stop-color="#d93838"/>
      <stop offset="100%" stop-color="#731414"/>
    </linearGradient>

    <linearGradient id="horn-grad" x1="0%" y1="0%" x2="100%" y2="100%">
      <stop offset="0%" stop-color="#f5e6d3"/>
      <stop offset="100%" stop-color="#8a735c"/>
    </linearGradient>

    <linearGradient id="feather-grad" x1="0%" y1="0%" x2="100%" y2="100%">
      <stop offset="0%" stop-color="#ff5252"/>
      <stop offset="100%" stop-color="#880e4f"/>
    </linearGradient>
  </defs>
  <!-- HALF PLATE (100% Transparent Background) -->
  <g filter="url(#drop-shadow)">
    <!-- Under-garment Dark Leather Armor -->
    <path d="M 175,115 Q 256,130 337,115 L 395,185 L 345,220 L 325,190 L 325,430 Q 256,445 187,430 L 187,190 L 167,220 L 117,185 Z" fill="url(#leather-dark)" stroke="#2a2333" stroke-width="5"/>
    <!-- Heavy Layered Pauldrons (Shoulders) -->
    <path d="M 115,170 Q 140,110 190,120 L 180,210 L 130,215 Z" fill="url(#steel-rim)" stroke="#2a2333" stroke-width="5" stroke-linejoin="round"/>
    <path d="M 397,170 Q 372,110 322,120 L 332,210 L 382,215 Z" fill="url(#steel-rim)" stroke="#2a2333" stroke-width="5" stroke-linejoin="round"/>
    <!-- Steel Cuirass (Chestplate) -->
    <path d="M 190,135 Q 256,150 322,135 Q 340,240 325,320 Q 256,345 187,320 Q 172,240 190,135 Z" fill="url(#steel-rim)" stroke="#2a2333" stroke-width="5.5" stroke-linejoin="round"/>
    <path d="M 256,150 L 190,135 Q 172,240 187,320 Q 256,345 256,345 Z" fill="url(#blade-light)" opacity="0.5"/>
    <line x1="256" y1="150" x2="256" y2="340" stroke="#2a2333" stroke-width="3"/>
    <!-- Faulds / Tassets (Thigh Guard Plates) -->
    <path d="M 190,335 L 245,345 L 235,420 L 185,400 Z" fill="url(#steel-rim)" stroke="#2a2333" stroke-width="4.5" stroke-linejoin="round"/>
    <path d="M 322,335 L 267,345 L 277,420 L 327,400 Z" fill="url(#steel-rim)" stroke="#2a2333" stroke-width="4.5" stroke-linejoin="round"/>
    <!-- Brass Crest Medallion -->
    <circle cx="256" cy="235" r="16" fill="url(#gold-grad)" stroke="#2a2333" stroke-width="4"/>
    <polygon points="256,223 261,235 256,247 251,235" fill="#2a2333"/>
  </g>
</svg>